<mxfile host="Electron" modified="2023-05-27T14:01:20.933Z" agent="Mozilla/5.0 (Macintosh; Intel Mac OS X 10_15_7) AppleWebKit/537.36 (KHTML, like Gecko) draw.io/21.2.1 Chrome/112.0.5615.87 Electron/24.1.2 Safari/537.36" etag="OZ7Xe4589xWvRoUDOtgL" version="21.2.1" type="device">
  <diagram name="Page-1" id="H1nZVYqxkzLZFgEqRADx">
    <mxGraphModel dx="470" dy="2675" grid="1" gridSize="10" guides="1" tooltips="1" connect="1" arrows="1" fold="1" page="1" pageScale="1" pageWidth="850" pageHeight="1100" math="0" shadow="0">
      <root>
        <mxCell id="0" />
        <mxCell id="1" parent="0" />
        <mxCell id="AsBp8XiL8Dx4Y6rQVwFH-949" value="R, W: 98, H: 95, ORDER: 11, GC: {45, 28, 25, 3, 22, 12, 19, 5, 7, 50, 48} " style="text;html=1;strokeColor=none;fillColor=none;align=center;verticalAlign=middle;whiteSpace=wrap;rounded=0;" parent="1" vertex="1">
          <mxGeometry x="1080" width="980" height="30" as="geometry" />
        </mxCell>
        <mxCell id="AsBp8XiL8Dx4Y6rQVwFH-985" value="R, W: 98, H: 86, ORDER: 11, GC: {35, 24, 39, 11, 6, 7, 5, 1, 8, 51, 47} " style="text;html=1;strokeColor=none;fillColor=none;align=center;verticalAlign=middle;whiteSpace=wrap;rounded=0;" parent="1" vertex="1">
          <mxGeometry x="1080" y="1150" width="980" height="30" as="geometry" />
        </mxCell>
        <mxCell id="AsBp8XiL8Dx4Y6rQVwFH-1189" value="R, W: 98, H: 65, ORDER: 11, GC: {65, 14, 10, 9, 1, 8, 4, 7, 18, 15, 33} " style="text;html=1;strokeColor=none;fillColor=none;align=center;verticalAlign=middle;whiteSpace=wrap;rounded=0;" parent="1" vertex="1">
          <mxGeometry x="1080" y="2310" width="980" height="30" as="geometry" />
        </mxCell>
        <mxCell id="AsBp8XiL8Dx4Y6rQVwFH-2139" value="R, W: 98, H: 97, ORDER: 13, GC: {41, 28, 29, 13, 11, 4, 3, 26, 7, 2, 16, 56, 42} " style="text;html=1;strokeColor=none;fillColor=none;align=center;verticalAlign=middle;whiteSpace=wrap;rounded=0;" parent="1" vertex="1">
          <mxGeometry x="1080" y="3150" width="980" height="30" as="geometry" />
        </mxCell>
        <mxCell id="2FRjjr6xRHlnPTZWaGZe-1" value="" style="group;flipV=1;" vertex="1" connectable="0" parent="1">
          <mxGeometry x="1080" y="50" width="980" height="950" as="geometry" />
        </mxCell>
        <mxCell id="761dnnyQ54j-Cl0NHfQN-950" value="45" style="rounded=0;whiteSpace=wrap;html=1;" parent="2FRjjr6xRHlnPTZWaGZe-1" vertex="1">
          <mxGeometry y="500" width="450" height="450" as="geometry" />
        </mxCell>
        <mxCell id="761dnnyQ54j-Cl0NHfQN-951" value="28" style="rounded=0;whiteSpace=wrap;html=1;" parent="2FRjjr6xRHlnPTZWaGZe-1" vertex="1">
          <mxGeometry x="450" y="670" width="280" height="280" as="geometry" />
        </mxCell>
        <mxCell id="761dnnyQ54j-Cl0NHfQN-952" value="25" style="rounded=0;whiteSpace=wrap;html=1;" parent="2FRjjr6xRHlnPTZWaGZe-1" vertex="1">
          <mxGeometry x="730" y="700" width="250" height="250" as="geometry" />
        </mxCell>
        <mxCell id="761dnnyQ54j-Cl0NHfQN-953" value="3" style="rounded=0;whiteSpace=wrap;html=1;" parent="2FRjjr6xRHlnPTZWaGZe-1" vertex="1">
          <mxGeometry x="730" y="670" width="30" height="30" as="geometry" />
        </mxCell>
        <mxCell id="761dnnyQ54j-Cl0NHfQN-954" value="22" style="rounded=0;whiteSpace=wrap;html=1;" parent="2FRjjr6xRHlnPTZWaGZe-1" vertex="1">
          <mxGeometry x="760" y="480" width="220" height="220" as="geometry" />
        </mxCell>
        <mxCell id="761dnnyQ54j-Cl0NHfQN-955" value="12" style="rounded=0;whiteSpace=wrap;html=1;" parent="2FRjjr6xRHlnPTZWaGZe-1" vertex="1">
          <mxGeometry x="450" y="550" width="120" height="120" as="geometry" />
        </mxCell>
        <mxCell id="761dnnyQ54j-Cl0NHfQN-956" value="19" style="rounded=0;whiteSpace=wrap;html=1;" parent="2FRjjr6xRHlnPTZWaGZe-1" vertex="1">
          <mxGeometry x="570" y="480" width="190" height="190" as="geometry" />
        </mxCell>
        <mxCell id="761dnnyQ54j-Cl0NHfQN-957" value="5" style="rounded=0;whiteSpace=wrap;html=1;" parent="2FRjjr6xRHlnPTZWaGZe-1" vertex="1">
          <mxGeometry x="450" y="500" width="50" height="50" as="geometry" />
        </mxCell>
        <mxCell id="761dnnyQ54j-Cl0NHfQN-958" value="7" style="rounded=0;whiteSpace=wrap;html=1;" parent="2FRjjr6xRHlnPTZWaGZe-1" vertex="1">
          <mxGeometry x="500" y="480" width="70" height="70" as="geometry" />
        </mxCell>
        <mxCell id="761dnnyQ54j-Cl0NHfQN-959" value="50" style="rounded=0;whiteSpace=wrap;html=1;" parent="2FRjjr6xRHlnPTZWaGZe-1" vertex="1">
          <mxGeometry width="500" height="500" as="geometry" />
        </mxCell>
        <mxCell id="761dnnyQ54j-Cl0NHfQN-960" value="48" style="rounded=0;whiteSpace=wrap;html=1;" parent="2FRjjr6xRHlnPTZWaGZe-1" vertex="1">
          <mxGeometry x="500" width="480" height="480" as="geometry" />
        </mxCell>
        <mxCell id="2FRjjr6xRHlnPTZWaGZe-2" value="" style="group;flipV=1;" vertex="1" connectable="0" parent="1">
          <mxGeometry x="1080" y="1200" width="980" height="860" as="geometry" />
        </mxCell>
        <mxCell id="761dnnyQ54j-Cl0NHfQN-986" value="35" style="rounded=0;whiteSpace=wrap;html=1;" parent="2FRjjr6xRHlnPTZWaGZe-2" vertex="1">
          <mxGeometry y="510" width="350" height="350" as="geometry" />
        </mxCell>
        <mxCell id="761dnnyQ54j-Cl0NHfQN-987" value="24" style="rounded=0;whiteSpace=wrap;html=1;" parent="2FRjjr6xRHlnPTZWaGZe-2" vertex="1">
          <mxGeometry x="350" y="620" width="240" height="240" as="geometry" />
        </mxCell>
        <mxCell id="761dnnyQ54j-Cl0NHfQN-988" value="39" style="rounded=0;whiteSpace=wrap;html=1;" parent="2FRjjr6xRHlnPTZWaGZe-2" vertex="1">
          <mxGeometry x="590" y="470" width="390" height="390" as="geometry" />
        </mxCell>
        <mxCell id="761dnnyQ54j-Cl0NHfQN-989" value="11" style="rounded=0;whiteSpace=wrap;html=1;" parent="2FRjjr6xRHlnPTZWaGZe-2" vertex="1">
          <mxGeometry x="350" y="510" width="110" height="110" as="geometry" />
        </mxCell>
        <mxCell id="761dnnyQ54j-Cl0NHfQN-990" value="6" style="rounded=0;whiteSpace=wrap;html=1;" parent="2FRjjr6xRHlnPTZWaGZe-2" vertex="1">
          <mxGeometry x="460" y="560" width="60" height="60" as="geometry" />
        </mxCell>
        <mxCell id="761dnnyQ54j-Cl0NHfQN-991" value="7" style="rounded=0;whiteSpace=wrap;html=1;" parent="2FRjjr6xRHlnPTZWaGZe-2" vertex="1">
          <mxGeometry x="520" y="550" width="70" height="70" as="geometry" />
        </mxCell>
        <mxCell id="761dnnyQ54j-Cl0NHfQN-992" value="5" style="rounded=0;whiteSpace=wrap;html=1;" parent="2FRjjr6xRHlnPTZWaGZe-2" vertex="1">
          <mxGeometry x="460" y="510" width="50" height="50" as="geometry" />
        </mxCell>
        <mxCell id="761dnnyQ54j-Cl0NHfQN-993" value="1" style="rounded=0;whiteSpace=wrap;html=1;" parent="2FRjjr6xRHlnPTZWaGZe-2" vertex="1">
          <mxGeometry x="510" y="550" width="10" height="10" as="geometry" />
        </mxCell>
        <mxCell id="761dnnyQ54j-Cl0NHfQN-994" value="8" style="rounded=0;whiteSpace=wrap;html=1;" parent="2FRjjr6xRHlnPTZWaGZe-2" vertex="1">
          <mxGeometry x="510" y="470" width="80" height="80" as="geometry" />
        </mxCell>
        <mxCell id="761dnnyQ54j-Cl0NHfQN-995" value="51" style="rounded=0;whiteSpace=wrap;html=1;" parent="2FRjjr6xRHlnPTZWaGZe-2" vertex="1">
          <mxGeometry width="510" height="510" as="geometry" />
        </mxCell>
        <mxCell id="761dnnyQ54j-Cl0NHfQN-996" value="47" style="rounded=0;whiteSpace=wrap;html=1;" parent="2FRjjr6xRHlnPTZWaGZe-2" vertex="1">
          <mxGeometry x="510" width="470" height="470" as="geometry" />
        </mxCell>
        <mxCell id="2FRjjr6xRHlnPTZWaGZe-5" value="" style="group;flipV=1;" vertex="1" connectable="0" parent="1">
          <mxGeometry x="1080" y="2360" width="980" height="650" as="geometry" />
        </mxCell>
        <mxCell id="761dnnyQ54j-Cl0NHfQN-1190" value="65" style="rounded=0;whiteSpace=wrap;html=1;" parent="2FRjjr6xRHlnPTZWaGZe-5" vertex="1">
          <mxGeometry width="650" height="650" as="geometry" />
        </mxCell>
        <mxCell id="761dnnyQ54j-Cl0NHfQN-1191" value="14" style="rounded=0;whiteSpace=wrap;html=1;fillColor=#f5f5f5;fontColor=#333333;strokeColor=#666666;" parent="2FRjjr6xRHlnPTZWaGZe-5" vertex="1">
          <mxGeometry x="650" y="510" width="140" height="140" as="geometry" />
        </mxCell>
        <mxCell id="761dnnyQ54j-Cl0NHfQN-1192" value="10" style="rounded=0;whiteSpace=wrap;html=1;fillColor=#f5f5f5;fontColor=#333333;strokeColor=#666666;" parent="2FRjjr6xRHlnPTZWaGZe-5" vertex="1">
          <mxGeometry x="790" y="550" width="100" height="100" as="geometry" />
        </mxCell>
        <mxCell id="761dnnyQ54j-Cl0NHfQN-1193" value="9" style="rounded=0;whiteSpace=wrap;html=1;fillColor=#f5f5f5;fontColor=#333333;strokeColor=#666666;" parent="2FRjjr6xRHlnPTZWaGZe-5" vertex="1">
          <mxGeometry x="890" y="560" width="90" height="90" as="geometry" />
        </mxCell>
        <mxCell id="761dnnyQ54j-Cl0NHfQN-1194" value="1" style="rounded=0;whiteSpace=wrap;html=1;fillColor=#f5f5f5;fontColor=#333333;strokeColor=#666666;" parent="2FRjjr6xRHlnPTZWaGZe-5" vertex="1">
          <mxGeometry x="890" y="550" width="10" height="10" as="geometry" />
        </mxCell>
        <mxCell id="761dnnyQ54j-Cl0NHfQN-1195" value="8" style="rounded=0;whiteSpace=wrap;html=1;fillColor=#f5f5f5;fontColor=#333333;strokeColor=#666666;" parent="2FRjjr6xRHlnPTZWaGZe-5" vertex="1">
          <mxGeometry x="900" y="480" width="80" height="80" as="geometry" />
        </mxCell>
        <mxCell id="761dnnyQ54j-Cl0NHfQN-1196" value="4" style="rounded=0;whiteSpace=wrap;html=1;fillColor=#f5f5f5;fontColor=#333333;strokeColor=#666666;" parent="2FRjjr6xRHlnPTZWaGZe-5" vertex="1">
          <mxGeometry x="790" y="510" width="40" height="40" as="geometry" />
        </mxCell>
        <mxCell id="761dnnyQ54j-Cl0NHfQN-1197" value="7" style="rounded=0;whiteSpace=wrap;html=1;fillColor=#f5f5f5;fontColor=#333333;strokeColor=#666666;" parent="2FRjjr6xRHlnPTZWaGZe-5" vertex="1">
          <mxGeometry x="830" y="480" width="70" height="70" as="geometry" />
        </mxCell>
        <mxCell id="761dnnyQ54j-Cl0NHfQN-1198" value="18" style="rounded=0;whiteSpace=wrap;html=1;fillColor=#f5f5f5;fontColor=#333333;strokeColor=#666666;" parent="2FRjjr6xRHlnPTZWaGZe-5" vertex="1">
          <mxGeometry x="650" y="330" width="180" height="180" as="geometry" />
        </mxCell>
        <mxCell id="761dnnyQ54j-Cl0NHfQN-1199" value="15" style="rounded=0;whiteSpace=wrap;html=1;fillColor=#f5f5f5;fontColor=#333333;strokeColor=#666666;" parent="2FRjjr6xRHlnPTZWaGZe-5" vertex="1">
          <mxGeometry x="830" y="330" width="150" height="150" as="geometry" />
        </mxCell>
        <mxCell id="761dnnyQ54j-Cl0NHfQN-1200" value="33" style="rounded=0;whiteSpace=wrap;html=1;" parent="2FRjjr6xRHlnPTZWaGZe-5" vertex="1">
          <mxGeometry x="650" width="330" height="330" as="geometry" />
        </mxCell>
        <mxCell id="2FRjjr6xRHlnPTZWaGZe-6" value="" style="group;flipV=1;" vertex="1" connectable="0" parent="1">
          <mxGeometry x="1080" y="3200" width="980" height="970" as="geometry" />
        </mxCell>
        <mxCell id="761dnnyQ54j-Cl0NHfQN-2140" value="41" style="rounded=0;whiteSpace=wrap;html=1;" parent="2FRjjr6xRHlnPTZWaGZe-6" vertex="1">
          <mxGeometry y="560" width="410" height="410" as="geometry" />
        </mxCell>
        <mxCell id="761dnnyQ54j-Cl0NHfQN-2141" value="28" style="rounded=0;whiteSpace=wrap;html=1;" parent="2FRjjr6xRHlnPTZWaGZe-6" vertex="1">
          <mxGeometry x="410" y="690" width="280" height="280" as="geometry" />
        </mxCell>
        <mxCell id="761dnnyQ54j-Cl0NHfQN-2142" value="29" style="rounded=0;whiteSpace=wrap;html=1;" parent="2FRjjr6xRHlnPTZWaGZe-6" vertex="1">
          <mxGeometry x="690" y="680" width="290" height="290" as="geometry" />
        </mxCell>
        <mxCell id="761dnnyQ54j-Cl0NHfQN-2143" value="13" style="rounded=0;whiteSpace=wrap;html=1;" parent="2FRjjr6xRHlnPTZWaGZe-6" vertex="1">
          <mxGeometry x="410" y="560" width="130" height="130" as="geometry" />
        </mxCell>
        <mxCell id="761dnnyQ54j-Cl0NHfQN-2144" value="11" style="rounded=0;whiteSpace=wrap;html=1;" parent="2FRjjr6xRHlnPTZWaGZe-6" vertex="1">
          <mxGeometry x="540" y="580" width="110" height="110" as="geometry" />
        </mxCell>
        <mxCell id="761dnnyQ54j-Cl0NHfQN-2145" value="4" style="rounded=0;whiteSpace=wrap;html=1;" parent="2FRjjr6xRHlnPTZWaGZe-6" vertex="1">
          <mxGeometry x="650" y="650" width="40" height="40" as="geometry" />
        </mxCell>
        <mxCell id="761dnnyQ54j-Cl0NHfQN-2146" value="3" style="rounded=0;whiteSpace=wrap;html=1;" parent="2FRjjr6xRHlnPTZWaGZe-6" vertex="1">
          <mxGeometry x="690" y="650" width="30" height="30" as="geometry" />
        </mxCell>
        <mxCell id="761dnnyQ54j-Cl0NHfQN-2147" value="26" style="rounded=0;whiteSpace=wrap;html=1;" parent="2FRjjr6xRHlnPTZWaGZe-6" vertex="1">
          <mxGeometry x="720" y="420" width="260" height="260" as="geometry" />
        </mxCell>
        <mxCell id="761dnnyQ54j-Cl0NHfQN-2148" value="7" style="rounded=0;whiteSpace=wrap;html=1;" parent="2FRjjr6xRHlnPTZWaGZe-6" vertex="1">
          <mxGeometry x="650" y="580" width="70" height="70" as="geometry" />
        </mxCell>
        <mxCell id="761dnnyQ54j-Cl0NHfQN-2149" value="2" style="rounded=0;whiteSpace=wrap;html=1;" parent="2FRjjr6xRHlnPTZWaGZe-6" vertex="1">
          <mxGeometry x="540" y="560" width="20" height="20" as="geometry" />
        </mxCell>
        <mxCell id="761dnnyQ54j-Cl0NHfQN-2150" value="16" style="rounded=0;whiteSpace=wrap;html=1;" parent="2FRjjr6xRHlnPTZWaGZe-6" vertex="1">
          <mxGeometry x="560" y="420" width="160" height="160" as="geometry" />
        </mxCell>
        <mxCell id="761dnnyQ54j-Cl0NHfQN-2151" value="56" style="rounded=0;whiteSpace=wrap;html=1;" parent="2FRjjr6xRHlnPTZWaGZe-6" vertex="1">
          <mxGeometry width="560" height="560" as="geometry" />
        </mxCell>
        <mxCell id="761dnnyQ54j-Cl0NHfQN-2152" value="42" style="rounded=0;whiteSpace=wrap;html=1;" parent="2FRjjr6xRHlnPTZWaGZe-6" vertex="1">
          <mxGeometry x="560" width="420" height="420" as="geometry" />
        </mxCell>
      </root>
    </mxGraphModel>
  </diagram>
</mxfile>
